<svg xmlns="http://www.w3.org/2000/svg" viewBox="0 0 32 32">
  <!-- Calculator body -->
  <rect x="6" y="2" width="20" height="28" rx="2" ry="2" fill="#D8DBE8" stroke="#1A1A2E" stroke-width="1.5"/>
  <!-- Display -->
  <rect x="8" y="4" width="16" height="7" rx="1" ry="1" fill="#1A1A2E"/>
  <!-- Display text hint -->
  <rect x="16" y="7" width="6" height="2" rx="0.5" fill="#1E8A65" opacity="0.8"/>
  <!-- Button row 1 -->
  <rect x="8" y="13" width="3.5" height="3" rx="1" fill="#FFFFFF" stroke="#1A1A2E" stroke-width="0.75"/>
  <rect x="12.5" y="13" width="3.5" height="3" rx="1" fill="#FFFFFF" stroke="#1A1A2E" stroke-width="0.75"/>
  <rect x="17" y="13" width="3.5" height="3" rx="1" fill="#FFFFFF" stroke="#1A1A2E" stroke-width="0.75"/>
  <rect x="21.5" y="13" width="3.5" height="3" rx="1" fill="#E8A317" stroke="#1A1A2E" stroke-width="0.75"/>
  <!-- Button row 2 -->
  <rect x="8" y="17.5" width="3.5" height="3" rx="1" fill="#FFFFFF" stroke="#1A1A2E" stroke-width="0.75"/>
  <rect x="12.5" y="17.5" width="3.5" height="3" rx="1" fill="#FFFFFF" stroke="#1A1A2E" stroke-width="0.75"/>
  <rect x="17" y="17.5" width="3.5" height="3" rx="1" fill="#FFFFFF" stroke="#1A1A2E" stroke-width="0.75"/>
  <rect x="21.5" y="17.5" width="3.5" height="3" rx="1" fill="#E8A317" stroke="#1A1A2E" stroke-width="0.75"/>
  <!-- Button row 3 -->
  <rect x="8" y="22" width="3.5" height="3" rx="1" fill="#FFFFFF" stroke="#1A1A2E" stroke-width="0.75"/>
  <rect x="12.5" y="22" width="3.5" height="3" rx="1" fill="#FFFFFF" stroke="#1A1A2E" stroke-width="0.75"/>
  <rect x="17" y="22" width="3.5" height="3" rx="1" fill="#FFFFFF" stroke="#1A1A2E" stroke-width="0.75"/>
  <rect x="21.5" y="22" width="3.5" height="3" rx="1" fill="#2B5BB5" stroke="#1A1A2E" stroke-width="0.75"/>
  <!-- Button row 4 -->
  <rect x="8" y="26.5" width="8" height="3" rx="1" fill="#FFFFFF" stroke="#1A1A2E" stroke-width="0.75"/>
  <rect x="17" y="26.5" width="3.5" height="3" rx="1" fill="#FFFFFF" stroke="#1A1A2E" stroke-width="0.75"/>
  <rect x="21.5" y="26.5" width="3.5" height="3" rx="1" fill="#2B5BB5" stroke="#1A1A2E" stroke-width="0.75"/>
</svg>