<svg xmlns="http://www.w3.org/2000/svg" viewBox="0 0 32 32">
  <!-- Palette -->
  <path d="M16 3 C8 3 3 9 3 16 C3 23 8 29 16 29 C18 29 19 28 19 27 C19 26 18.5 25.5 18 25 C17.5 24.5 17 24 17 23 C17 21.5 18.5 20 20 20 L22 20 C26 20 29 17 29 13 C29 7 23 3 16 3 Z" fill="#FFFFFF" stroke="#1A1A2E" stroke-width="1.5"/>
  <!-- Paint dots -->
  <circle cx="10" cy="12" r="2.5" fill="#DC3545"/>
  <circle cx="16" cy="9" r="2.5" fill="#E8A317"/>
  <circle cx="22" cy="12" r="2.5" fill="#1E8A65"/>
  <circle cx="8" cy="19" r="2.5" fill="#2B5BB5"/>
  <circle cx="13" cy="23" r="2.5" fill="#E8A317"/>
  <!-- Brush -->
  <line x1="24" y1="22" x2="29" y2="29" stroke="#E8A317" stroke-width="2" stroke-linecap="round"/>
  <path d="M23 21 L25 23 L29 29 L28 30 L22 24 Z" fill="#E8A317" stroke="#1A1A2E" stroke-width="1"/>
</svg>